<?xml version="1.0" encoding="UTF-8" standalone="no"?>
<!-- Created with Inkscape (http://www.inkscape.org/) -->

<svg
   xmlns:dc="http://purl.org/dc/elements/1.1/"
   xmlns:cc="http://creativecommons.org/ns#"
   xmlns:rdf="http://www.w3.org/1999/02/22-rdf-syntax-ns#"
   xmlns:svg="http://www.w3.org/2000/svg"
   xmlns="http://www.w3.org/2000/svg"
   xmlns:sodipodi="http://sodipodi.sourceforge.net/DTD/sodipodi-0.dtd"
   xmlns:inkscape="http://www.inkscape.org/namespaces/inkscape"
   version="1.1"
   id="svg2"
   xml:space="preserve"
   width="783.2171"
   height="195.39413"
   viewBox="0 0 783.2171 195.39413"
   sodipodi:docname="pluribus-one.svg"
   inkscape:version="0.92.2 5c3e80d, 2017-08-06"><metadata
     id="metadata8"><rdf:RDF><cc:Work
         rdf:about=""><dc:format>image/svg+xml</dc:format><dc:type
           rdf:resource="http://purl.org/dc/dcmitype/StillImage" /><dc:title></dc:title></cc:Work></rdf:RDF></metadata><defs
     id="defs6"><clipPath
       clipPathUnits="userSpaceOnUse"
       id="clipPath20"><path
         d="M 0,0 H 591 V 285 H 0 Z"
         id="path18"
         inkscape:connector-curvature="0" /></clipPath></defs><sodipodi:namedview
     pagecolor="#ffffff"
     bordercolor="#666666"
     borderopacity="1"
     objecttolerance="10"
     gridtolerance="10"
     guidetolerance="10"
     inkscape:pageopacity="0"
     inkscape:pageshadow="2"
     inkscape:window-width="640"
     inkscape:window-height="480"
     id="namedview4"
     showgrid="false"
     inkscape:zoom="0.54135692"
     inkscape:cx="391.60855"
     inkscape:cy="97.697067"
     inkscape:window-x="0"
     inkscape:window-y="0"
     inkscape:window-maximized="0"
     inkscape:current-layer="g10" /><g
     id="g10"
     inkscape:groupmode="layer"
     inkscape:label="Pluribus One"
     transform="matrix(1.3333333,0,0,-1.3333333,-1.9743627,349.4236)"><g
       id="g12" /><g
       id="g14"><g
         id="g16"
         clip-path="url(#clipPath20)"><path
           d="m 170.3393,164.673 0.009,34.4526 c 0.003,10.9052 9.7875,19.1891 19.8596,19.1678 10.9483,-0.0232 19.8706,-8.8962 19.8706,-19.8706 0,-5.4867 -2.2241,-10.4542 -5.8198,-14.0499 -3.7621,-3.5142 -7.9108,-4.9064 -11.6446,-4.9265 -7.7308,-0.042 -12.0234,5.1725 -10.759,10.8592 2.1162,-2.1776 5.0764,-3.5308 8.3528,-3.5308 6.4335,0 11.6486,5.2153 11.6486,11.6483 0,6.4335 -5.2151,11.6488 -11.6486,11.6488 -6.2214,0 -11.6289,-4.8693 -11.6314,-11.0174 l -0.0194,-42.1029 c -4.61,0 -8.2186,4.1343 -8.2175,7.7214 z"
           style="fill:#000003;fill-opacity:1;fill-rule:nonzero;stroke:none"
           id="path22"
           inkscape:connector-curvature="0" /><path
           d="m 395.2419,162.7506 6.0638,3.3025 c 0.4491,-1.5998 1.2776,-2.8079 2.4969,-3.6476 1.2196,-0.8286 2.7731,-1.2428 4.6946,-1.2428 1.6339,0 2.9223,0.3798 3.8546,1.1277 0.9319,0.7597 1.4036,1.7834 1.4036,3.0837 0,1.7372 -1.6568,3.2215 -4.982,4.4528 -1.1277,0.4028 -1.9904,0.7364 -2.6005,1.0123 -3.4173,1.4155 -5.8106,2.8538 -7.1683,4.3151 -1.3579,1.4613 -2.0366,3.2333 -2.0366,5.3274 0,2.8535 1.1162,5.166 3.3599,6.9495 2.2321,1.7719 5.1893,2.6582 8.8712,2.6582 2.4737,0 4.591,-0.4606 6.363,-1.3692 1.7602,-0.909 3.0489,-2.1977 3.8543,-3.889 l -5.189,-3.5787 c -0.3799,1.0126 -1.0474,1.8179 -2.0022,2.4163 -0.9549,0.5985 -2.0593,0.8977 -3.3255,0.8977 -1.3918,0 -2.5083,-0.3339 -3.3481,-1.0014 -0.8401,-0.6557 -1.2658,-1.5417 -1.2658,-2.6462 0,-1.6571 1.8871,-3.1758 5.661,-4.5565 1.1968,-0.4255 2.1173,-0.7708 2.7616,-1.047 2.9456,-1.1619 5.0514,-2.4854 6.317,-3.9582 1.277,-1.4728 1.91,-3.3022 1.91,-5.5114 0,-3.1871 -1.1622,-5.6842 -3.4748,-7.4904 -2.3128,-1.8067 -5.4999,-2.7156 -9.5731,-2.7156 -3.1297,0 -5.7185,0.5868 -7.7899,1.749 -2.0708,1.1736 -3.6818,2.9571 -4.8557,5.3618 z"
           style="fill:#000003;fill-opacity:1;fill-rule:nonzero;stroke:none"
           id="path24"
           inkscape:connector-curvature="0" /><path
           d="m 300.3967,156.9515 v 24.8604 c 0,1.386 1.619,7.092 7.3181,7.092 v -31.9524 z"
           style="fill:#000003;fill-opacity:1;fill-rule:nonzero;stroke:none"
           id="path26"
           inkscape:connector-curvature="0" /><path
           d="m 299.4185,202.7228 c 0,1.2428 0.4603,2.3131 1.3695,3.2105 0.9089,0.8976 1.9907,1.3463 3.2447,1.3463 1.3118,0 2.393,-0.4373 3.2563,-1.3003 0.8627,-0.863 1.3003,-1.9445 1.3003,-3.2565 0,-1.2997 -0.4376,-2.393 -1.3118,-3.279 -0.8745,-0.886 -1.9563,-1.335 -3.2448,-1.335 -1.254,0 -2.3358,0.4606 -3.2447,1.3698 -0.9092,0.9087 -1.3695,1.9904 -1.3695,3.2442 z"
           style="fill:#000003;fill-opacity:1;fill-rule:nonzero;stroke:none"
           id="path28"
           inkscape:connector-curvature="0" /><path
           d="m 281.9521,175.1274 v -18.1759 h -7.3178 v 18.1759 h -0.0244 c 0,0.1042 0.002,0.2084 0.004,0.3121 0.1663,8.081 6.7682,14.5806 14.8891,14.5806 2.2943,0 4.4672,-0.5192 6.4083,-1.4458 l -2.8677,-6.7563 c -1.0564,0.5605 -2.2613,0.8782 -3.5406,0.8782 -4.0954,0 -7.4307,-3.2532 -7.564,-7.3161 -0.003,-0.0838 -0.005,-0.1684 -0.005,-0.2527 h 0.0182 z"
           style="fill:#000003;fill-opacity:1;fill-rule:nonzero;stroke:none"
           id="path30"
           inkscape:connector-curvature="0" /><path
           d="m 216.2979,156.9515 v 45.5576 c 0,2.2607 2.8667,6.6918 7.3181,6.6918 v -52.2494 z"
           style="fill:#000003;fill-opacity:1;fill-rule:nonzero;stroke:none"
           id="path32"
           inkscape:connector-curvature="0" /><path
           d="m 562.2046,171.8521 c 0,-5.4517 3.5243,-9.5463 9.1934,-9.5144 h 12.7732 c 0,-3.8598 -3.3607,-6.6979 -6.4875,-6.6979 h -6.2857 -5e-4 c -5.1148,0.002 -9.1951,1.5672 -12.2192,4.6828 -3.0375,3.1299 -4.5568,7.2951 -4.5565,12.5074 0,5.0167 1.565,9.1245 4.7061,12.3575 3.1299,3.2218 7.1571,4.8326 12.0816,4.8326 5.1428,0 9.159,-1.4724 12.0351,-4.4183 2.877,-2.9456 4.3153,-7.0649 4.3153,-12.3691 v -1.3806 c -8.5228,0 -17.0325,0 -25.5553,0 z m 17.7381,6.1924 c -0.4182,1.677 -1.2221,3.0025 -2.4005,3.9674 -1.4613,1.2081 -3.4518,1.8065 -5.9946,1.8065 -4.8357,0 -7.3564,-2.3429 -8.5128,-5.7739 z"
           style="fill:#38a53d;fill-opacity:1;fill-rule:nonzero;stroke:none"
           id="path34"
           inkscape:connector-curvature="0" /><path
           d="m 441.7127,186.5093 c 0,4.2257 0.8139,8.2206 2.4576,11.9699 1.628,3.7641 4.0397,7.153 7.2195,10.1673 3.0876,2.9563 6.6053,5.2061 10.5527,6.7638 3.9479,1.5428 8.1103,2.3217 12.4881,2.3217 4.3165,0 8.4638,-0.7932 12.4271,-2.3651 3.9474,-1.572 7.4958,-3.8504 10.6141,-6.8069 3.1184,-2.9855 5.499,-6.3599 7.1272,-10.1097 1.6434,-3.7638 2.4577,-7.7442 2.4577,-11.941 0,-4.2254 -0.8294,-8.2346 -2.4728,-12.0275 -1.659,-3.7784 -4.0246,-7.1528 -7.1121,-10.1094 -3.1183,-2.9851 -6.6647,-5.282 -10.6141,-6.8503 -8.7014,-3.4549 -18.4309,-1.5571 -26.2212,9.5332 5.21,-3.1006 6.8379,-4.2548 13.7941,-4.2548 3.1801,0 6.2058,0.5913 9.0629,1.7739 2.8725,1.1826 5.4224,2.8842 7.6805,5.1195 2.3039,2.3075 4.0703,4.8889 5.284,7.7733 1.2135,2.8697 1.828,5.9127 1.828,9.1143 0,3.1872 -0.5994,6.2011 -1.7972,9.0423 -1.1983,2.8554 -2.9801,5.4223 -5.3148,7.7441 -2.2581,2.2501 -4.808,3.966 -7.6805,5.1487 -2.8571,1.1825 -5.8828,1.7738 -9.0629,1.7738 -3.1795,0 -6.2212,-0.5913 -9.1393,-1.7593 -2.9033,-1.1683 -5.484,-2.8557 -7.7416,-5.0907 -2.3353,-2.3075 -4.1168,-4.8893 -5.3154,-7.7444 -1.198,-2.8555 -1.7972,-5.8985 -1.7972,-9.1145 0,-15.7397 11.752,-27.3438 20.3793,-31.242 -3.0697,0.314 -6.028,1.035 -8.8739,2.1683 -3.9474,1.5574 -7.4651,3.8073 -10.5527,6.7349 -3.1798,3.0428 -5.5915,6.4464 -7.2195,10.2248 -1.6437,3.7781 -2.4576,7.7878 -2.4576,12.0418 z"
           style="fill:#38a53d;fill-opacity:1;fill-rule:nonzero;stroke:none"
           id="path36"
           inkscape:connector-curvature="0" /><path
           d="m 264.7625,171.1102 c 0,-8.5442 -6.9265,-15.4704 -15.4707,-15.4704 -8.5441,0 -15.4703,6.9262 -15.4703,15.4704 h 6e-4 v 0.3086 10.3968 c 0,3.4167 3.1005,7.0883 7.3178,7.0883 v -17.5526 -0.2411 h 0.01 c 0,-4.4972 3.6453,-8.1426 8.1424,-8.1426 4.4974,0 8.1427,3.6454 8.1427,8.1426 h 0.01 v 0.0901 17.7036 h 7.3178 v -17.7717 -0.022 h 6e-4 z"
           style="fill:#000003;fill-opacity:1;fill-rule:evenodd;stroke:none"
           id="path38"
           inkscape:connector-curvature="0" /><path
           d="m 388.9557,171.1102 c 0,-8.5442 -6.9262,-15.4704 -15.4703,-15.4704 -8.5441,0 -15.4704,6.9262 -15.4704,15.4704 h 3e-4 v 0.3086 10.3968 c 0,3.4167 3.1009,7.0883 7.3181,7.0883 v -17.5526 -0.2411 h 0.009 c 0,-4.4972 3.6456,-8.1426 8.1427,-8.1426 4.4971,0 8.1428,3.6454 8.1428,8.1426 h 0.009 v 0.0901 17.7036 h 7.3181 v -17.7717 -0.022 h 2e-4 z"
           style="fill:#000003;fill-opacity:1;fill-rule:evenodd;stroke:none"
           id="path40"
           inkscape:connector-curvature="0" /><path
           d="m 546.8421,174.7454 c 0,8.5441 -6.9262,15.4703 -15.4703,15.4703 -8.5441,0 -15.4704,-6.9262 -15.4704,-15.4703 h 3e-4 v -0.3087 -10.3968 c 0,-3.4165 3.1008,-7.0884 7.3181,-7.0884 v 17.5527 0.2412 h 0.009 c 0,4.4971 3.6456,8.1427 8.1427,8.1427 4.4974,0 8.1427,-3.6456 8.1427,-8.1427 h 0.01 v -0.0902 -17.7037 h 7.3178 v 17.7718 0.0221 h 3e-4 z"
           style="fill:#38a53d;fill-opacity:1;fill-rule:evenodd;stroke:none"
           id="path42"
           inkscape:connector-curvature="0" /><path
           d="m 318.2479,202.4167 0.008,-30.1789 c 0.002,-9.4427 8.475,-16.6159 17.1964,-16.5974 9.48,0.0198 17.2059,7.7031 17.2059,17.2058 0,4.7512 -1.9257,9.0526 -5.0394,12.166 -3.2576,3.043 -6.8498,4.2483 -10.083,4.2659 -6.694,0.0362 -10.4111,-4.4789 -9.3162,-9.4029 1.8326,1.8854 4.3955,3.0572 7.2327,3.0572 5.5708,0 10.0867,-4.516 10.0867,-10.0864 0,-5.5706 -4.5159,-10.0865 -10.0867,-10.0865 -5.387,0 -10.0696,4.2162 -10.0718,9.5399 l -0.0168,36.8034 c -3.9915,0 -7.1162,-3.58 -7.1156,-6.6861 z"
           style="fill:#000003;fill-opacity:1;fill-rule:nonzero;stroke:none"
           id="path44"
           inkscape:connector-curvature="0" /><path
           d="m 14.43758,153.1911 c -2.55854,2.8363 -2.33304,7.2094 0.50307,9.7678 2.83631,2.5583 7.2096,2.3331 9.76784,-0.5033 2.55824,-2.8363 2.33304,-7.2094 -0.50337,-9.7679 -2.83631,-2.5582 -7.2094,-2.333 -9.76754,0.5034 z"
           style="fill:#38a53d;fill-opacity:1;fill-rule:evenodd;stroke:none"
           id="path46"
           inkscape:connector-curvature="0" /><path
           d="m 102.3838,203.1679 c 4.945,0 8.978,4.0329 8.978,8.978 0,4.945 -4.033,8.9783 -8.978,8.9783 -4.94504,0 -8.9783,-4.0333 -8.9783,-8.9783 0,-4.9451 4.03326,-8.978 8.9783,-8.978 z"
           style="fill:#38a53d;fill-opacity:1;fill-rule:evenodd;stroke:none"
           id="path48"
           inkscape:connector-curvature="0" /><path
           d="m 90.8439,217.7699 c 2.89323,0 5.25285,2.3599 5.25285,5.2531 0,2.8932 -2.35962,5.2532 -5.25285,5.2532 -2.89322,0 -5.25314,-2.36 -5.25314,-5.2532 0,-2.8932 2.35992,-5.2531 5.25314,-5.2531 z"
           style="fill:#38a53d;fill-opacity:1;fill-rule:evenodd;stroke:none"
           id="path50"
           inkscape:connector-curvature="0" /><path
           d="m 76.85949,218.0587 c 4.22349,0 7.6683,3.4447 7.6683,7.6682 0,4.2235 -3.44481,7.6682 -7.6683,7.6682 -4.22338,0 -7.6682,-3.4447 -7.6682,-7.6682 0,-4.2235 3.44482,-7.6682 7.6682,-7.6682 z"
           style="fill:#38a53d;fill-opacity:1;fill-rule:evenodd;stroke:none"
           id="path52"
           inkscape:connector-curvature="0" /><path
           d="m 49.85601,193.7674 c 5.5573,0 10.09008,4.5325 10.09008,10.0898 0,5.5573 -4.53278,10.0901 -10.09008,10.0901 -5.5573,0 -10.08998,-4.5328 -10.08998,-10.0901 0,-5.5573 4.53268,-10.0898 10.08998,-10.0898 z"
           style="fill:#38a53d;fill-opacity:1;fill-rule:evenodd;stroke:none"
           id="path54"
           inkscape:connector-curvature="0" /><path
           d="m 49.19997,175.2011 c 4.59889,0 8.34974,3.7509 8.34974,8.3497 0,4.5989 -3.75085,8.3497 -8.34974,8.3497 -4.59878,0 -8.34973,-3.7508 -8.34973,-8.3497 0,-4.5988 3.75095,-8.3497 8.34973,-8.3497 z"
           style="fill:#38a53d;fill-opacity:1;fill-rule:evenodd;stroke:none"
           id="path56"
           inkscape:connector-curvature="0" /><path
           d="m 49.19948,155.2745 c 5.13101,0 9.31576,4.1848 9.31576,9.3158 0,5.131 -4.18475,9.3162 -9.31576,9.3162 -5.13101,0 -9.31615,-4.1852 -9.31615,-9.3162 0,-5.131 4.18514,-9.3158 9.31615,-9.3158 z"
           style="fill:#38a53d;fill-opacity:1;fill-rule:evenodd;stroke:none"
           id="path58"
           inkscape:connector-curvature="0" /><path
           d="m 103.5463,185.7925 c 4.4197,0 8.0244,3.6047 8.0244,8.0245 0,4.4199 -3.6047,8.0249 -8.0244,8.0249 -4.41986,0 -8.02486,-3.605 -8.02486,-8.0249 0,-4.4198 3.605,-8.0245 8.02486,-8.0245 z"
           style="fill:#38a53d;fill-opacity:1;fill-rule:evenodd;stroke:none"
           id="path60"
           inkscape:connector-curvature="0" /><path
           d="m 95.48083,172.9571 c 3.90184,0 7.08417,3.1826 7.08417,7.0845 0,3.902 -3.18233,7.0845 -7.08417,7.0845 -3.90194,0 -7.0845,-3.1825 -7.0845,-7.0845 0,-3.9019 3.18256,-7.0845 7.0845,-7.0845 z"
           style="fill:#38a53d;fill-opacity:1;fill-rule:evenodd;stroke:none"
           id="path62"
           inkscape:connector-curvature="0" /><path
           d="m 76.85613,167.9421 c 5.34366,0 9.70154,4.3579 9.70154,9.7016 0,5.3435 -4.35788,9.7017 -9.70154,9.7017 -5.34356,0 -9.70173,-4.3582 -9.70173,-9.7017 0,-5.3437 4.35817,-9.7016 9.70173,-9.7016 z"
           style="fill:#38a53d;fill-opacity:1;fill-rule:evenodd;stroke:none"
           id="path64"
           inkscape:connector-curvature="0" /><path
           d="m 132.6352,148.3827 c 0.2915,5.6565 -4.0577,10.4783 -9.7142,10.7696 -5.6565,0.2916 -10.4782,-4.0576 -10.7695,-9.7141 -0.2917,-5.6565 4.0575,-10.4782 9.714,-10.7695 5.6565,-0.2917 10.4784,4.0575 10.7697,9.714 z"
           style="fill:#38a53d;fill-opacity:1;fill-rule:evenodd;stroke:none"
           id="path66"
           inkscape:connector-curvature="0" /><path
           d="m 26.71573,236.1242 c 5.14089,-0.2647 9.09343,-4.647 8.8285,-9.7878 -0.26473,-5.1408 -4.64701,-9.0934 -9.7878,-8.8284 -5.14089,0.2646 -9.09342,4.6469 -8.82849,9.7878 0.26472,5.1408 4.647,9.0934 9.78779,8.8284 z"
           style="fill:#38a53d;fill-opacity:1;fill-rule:evenodd;stroke:none"
           id="path68"
           inkscape:connector-curvature="0" /><path
           d="m 42.75926,250.7716 c 5.81274,-0.2997 10.28217,-5.2546 9.98247,-11.067 -0.29951,-5.8128 -5.25433,-10.282 -11.06707,-9.9826 -5.81254,0.2995 -10.28198,5.2544 -9.98217,11.0671 0.29941,5.8125 5.25423,10.282 11.06677,9.9825 z"
           style="fill:#38a53d;fill-opacity:1;fill-rule:evenodd;stroke:none"
           id="path70"
           inkscape:connector-curvature="0" /><path
           d="m 105.9456,251.4898 c -6.10769,0.3149 -11.31409,-4.3811 -11.62862,-10.4889 -0.31483,-6.1074 4.38109,-11.3138 10.48892,-11.6287 6.1077,-0.3145 11.3138,4.3814 11.6286,10.4892 0.3146,6.1075 -4.3814,11.3138 -10.4889,11.6284 z"
           style="fill:#38a53d;fill-opacity:1;fill-rule:evenodd;stroke:none"
           id="path72"
           inkscape:connector-curvature="0" /><path
           d="m 85.1039,256.4085 c -4.83743,0.2493 -8.96091,-3.4703 -9.21023,-8.3077 -0.24921,-4.8374 3.47031,-8.9609 8.30744,-9.2102 4.83753,-0.2493 8.96121,3.4702 9.21052,8.3077 0.24902,4.8374 -3.47021,8.9609 -8.30773,9.2102 z"
           style="fill:#38a53d;fill-opacity:1;fill-rule:evenodd;stroke:none"
           id="path74"
           inkscape:connector-curvature="0" /><path
           d="m 143.3218,193.6028 c -3.8887,4.3108 -10.5359,4.6534 -14.8471,0.7649 -4.3109,-3.8887 -4.6534,-10.5359 -0.765,-14.8468 3.8888,-4.3112 10.536,-4.6537 14.8469,-0.7653 4.3111,3.8888 4.6537,10.5361 0.7652,14.8472 z"
           style="fill:#38a53d;fill-opacity:1;fill-rule:evenodd;stroke:none"
           id="path76"
           inkscape:connector-curvature="0" /><path
           d="m 138.3303,213.6235 c -3.3636,3.7288 -9.1128,4.0251 -12.8419,0.6615 -3.7287,-3.3634 -4.025,-9.1126 -0.6616,-12.8418 3.3635,-3.7288 9.113,-4.0251 12.8418,-0.6615 3.7288,3.3635 4.0252,9.1127 0.6617,12.8418 z"
           style="fill:#38a53d;fill-opacity:1;fill-rule:evenodd;stroke:none"
           id="path78"
           inkscape:connector-curvature="0" /><path
           d="m 128.3209,231.3817 c -3.3366,3.6991 -9.0402,3.993 -12.7396,0.6563 -3.699,-3.3366 -3.9929,-9.0402 -0.6563,-12.7392 3.3367,-3.6995 9.0403,-3.9933 12.7393,-0.6567 3.6994,3.3366 3.9933,9.0403 0.6566,12.7396 z"
           style="fill:#38a53d;fill-opacity:1;fill-rule:evenodd;stroke:none"
           id="path80"
           inkscape:connector-curvature="0" /><path
           d="m 81.0726,119.602 c 3.65569,3.2973 3.94621,8.9343 0.64873,12.59 -3.29739,3.656 -8.93433,3.9461 -12.59002,0.6487 -3.65569,-3.2975 -3.94611,-8.9343 -0.64873,-12.59 3.29749,-3.6557 8.93433,-3.9461 12.59002,-0.6487 z"
           style="fill:#38a53d;fill-opacity:1;fill-rule:evenodd;stroke:none"
           id="path82"
           inkscape:connector-curvature="0" /><path
           d="m 114.0805,128.1085 c 3.7122,3.3485 4.0072,9.0722 0.6588,12.7844 -3.3483,3.712 -9.0721,4.007 -12.7841,0.6586 -3.71227,-3.3482 -4.00724,-9.0719 -0.6588,-12.7842 3.3484,-3.7122 9.0721,-4.0069 12.7841,-0.6588 z"
           style="fill:#38a53d;fill-opacity:1;fill-rule:evenodd;stroke:none"
           id="path84"
           inkscape:connector-curvature="0" /><path
           d="m 59.00823,125.8895 c 3.92655,0 7.12907,3.2022 7.12907,7.1288 0,3.9265 -3.20252,7.129 -7.12907,7.129 -3.92654,0 -7.12896,-3.2025 -7.12896,-7.129 0,-3.9266 3.20242,-7.1288 7.12896,-7.1288 z"
           style="fill:#38a53d;fill-opacity:1;fill-rule:evenodd;stroke:none"
           id="path86"
           inkscape:connector-curvature="0" /><path
           d="m 11.04098,216.7422 c 3.29373,2.9708 8.37207,2.7091 11.34296,-0.5846 2.9711,-3.2935 2.70914,-8.3722 -0.5843,-11.343 -3.29382,-2.9708 -8.37216,-2.7092 -11.34296,0.5846 -2.97119,3.2936 -2.70923,8.3722 0.5843,11.343 z"
           style="fill:#38a53d;fill-opacity:1;fill-rule:evenodd;stroke:none"
           id="path88"
           inkscape:connector-curvature="0" /><path
           d="m 6.74942,173.7907 c 0.2339,4.5358 4.10026,8.0235 8.636,7.7896 4.53575,-0.2336 8.02345,-4.1003 7.78975,-8.636 -0.2338,-4.5359 -4.10016,-8.0235 -8.636,-7.7896 -4.53604,0.2336 -8.02335,4.1003 -7.78975,8.636 z"
           style="fill:#38a53d;fill-opacity:1;fill-rule:evenodd;stroke:none"
           id="path90"
           inkscape:connector-curvature="0" /><path
           d="m 3.79423,192.7112 c 0.26443,5.1304 4.63782,9.0752 9.76824,8.8108 5.13041,-0.2644 9.07524,-4.6378 8.8108,-9.7682 -0.26443,-5.1304 -4.63772,-9.0753 -9.76823,-8.8108 -5.13041,0.2644 -9.07514,4.6378 -8.81081,9.7682 z"
           style="fill:#38a53d;fill-opacity:1;fill-rule:evenodd;stroke:none"
           id="path92"
           inkscape:connector-curvature="0" /><path
           d="m 23.02675,142.5963 c -2.14559,2.3784 -1.95656,6.0458 0.42184,8.1911 2.37869,2.1454 6.04585,1.9566 8.19143,-0.422 2.14539,-2.3784 1.95636,-6.0459 -0.42204,-8.1913 -2.37869,-2.1452 -6.04584,-1.9562 -8.19123,0.4222 z"
           style="fill:#38a53d;fill-opacity:1;fill-rule:evenodd;stroke:none"
           id="path94"
           inkscape:connector-curvature="0" /><path
           d="m 138.5659,171.4183 c -3.0602,3.3926 -8.2918,3.6624 -11.6845,0.6019 -3.3929,-3.0605 -3.6624,-8.2918 -0.6022,-11.6847 3.0605,-3.3927 8.2918,-3.6624 11.6847,-0.602 3.3929,3.0605 3.6624,8.2918 0.602,11.6848 z"
           style="fill:#38a53d;fill-opacity:1;fill-rule:evenodd;stroke:none"
           id="path96"
           inkscape:connector-curvature="0" /><path
           d="m 92.12712,135.46 c -3.94255,0.2034 -7.30298,-2.828 -7.50604,-6.7703 -0.20317,-3.9424 2.8279,-7.3029 6.77046,-7.506 3.94225,-0.2031 7.30268,2.828 7.50604,6.7705 0.20307,3.9422 -2.8283,7.3027 -6.77046,7.5058 z"
           style="fill:#38a53d;fill-opacity:1;fill-rule:evenodd;stroke:none"
           id="path98"
           inkscape:connector-curvature="0" /><path
           d="m 51.12263,139.6182 c 4.01232,0 7.2848,3.2724 7.2848,7.2848 0,4.0122 -3.27248,7.285 -7.2848,7.285 -4.01221,0 -7.28499,-3.2728 -7.28499,-7.285 0,-4.0124 3.27278,-7.2848 7.28499,-7.2848 z"
           style="fill:#38a53d;fill-opacity:1;fill-rule:evenodd;stroke:none"
           id="path100"
           inkscape:connector-curvature="0" /><path
           d="m 61.05253,211.8719 c 4.19849,0 7.62285,3.4243 7.62285,7.6229 0,4.1985 -3.42436,7.6231 -7.62285,7.6231 -4.19858,0 -7.62314,-3.4246 -7.62314,-7.6231 0,-4.1986 3.42456,-7.6229 7.62314,-7.6229 z"
           style="fill:#38a53d;fill-opacity:1;fill-rule:evenodd;stroke:none"
           id="path102"
           inkscape:connector-curvature="0" /><path
           d="m 64.11908,260.0273 c -5.90741,0.3044 -10.94326,-4.2379 -11.24771,-10.1453 -0.30445,-5.9075 4.23772,-10.9432 10.14522,-11.2478 5.9075,-0.3041 10.94325,4.2381 11.2477,10.1455 0.30426,5.9075 -4.23771,10.943 -10.14521,11.2476 z"
           style="fill:#38a53d;fill-opacity:1;fill-rule:evenodd;stroke:none"
           id="path104"
           inkscape:connector-curvature="0" /><path
           d="m 33.01455,135.9286 c -1.5355,1.7025 -1.40022,4.3273 0.30228,5.8629 1.7022,1.5356 4.32704,1.4002 5.86264,-0.3023 1.53549,-1.7022 1.40051,-4.327 -0.30199,-5.8626 -1.70249,-1.5355 -4.32733,-1.4002 -5.86293,0.302 z"
           style="fill:#38a53d;fill-opacity:1;fill-rule:evenodd;stroke:none"
           id="path106"
           inkscape:connector-curvature="0" /><path
           d="m 67.56054,150.3976 c 0,5.3582 4.34364,9.7015 9.70153,9.7015 5.35789,0 9.70154,-4.3433 9.70154,-9.7015 0,-5.3579 -4.34365,-9.7016 -9.70154,-9.7016 -5.35789,0 -9.70153,4.3437 -9.70153,9.7016 z"
           style="fill:#d1e5c7;fill-opacity:1;fill-rule:evenodd;stroke:none"
           id="path108"
           inkscape:connector-curvature="0" /><path
           d="m 89.33528,155.2574 c 0,4.0938 3.31863,7.4125 7.41247,7.4125 4.09405,0 7.41275,-3.3187 7.41275,-7.4125 0,-4.094 -3.3187,-7.4127 -7.41275,-7.4127 -4.09384,0 -7.41247,3.3187 -7.41247,7.4127 z"
           style="fill:#d1e5c7;fill-opacity:1;fill-rule:evenodd;stroke:none"
           id="path110"
           inkscape:connector-curvature="0" /><path
           d="m 103.7121,165.9116 c 0,3.1132 2.5237,5.6369 5.6368,5.6369 3.1134,0 5.6372,-2.5237 5.6372,-5.6369 0,-3.1134 -2.5238,-5.6372 -5.6372,-5.6372 -3.1131,0 -5.6368,2.5238 -5.6368,5.6372 z"
           style="fill:#d1e5c7;fill-opacity:1;fill-rule:evenodd;stroke:none"
           id="path112"
           inkscape:connector-curvature="0" /><path
           d="m 111.8366,177.945 c 0,2.4597 1.994,4.4538 4.4537,4.4538 2.4596,0 4.4537,-1.9941 4.4537,-4.4538 0,-2.4596 -1.9941,-4.4537 -4.4537,-4.4537 -2.4597,0 -4.4537,1.9941 -4.4537,4.4537 z"
           style="fill:#d1e5c7;fill-opacity:1;fill-rule:evenodd;stroke:none"
           id="path114"
           inkscape:connector-curvature="0" /><path
           d="m 115.129,190.0552 c 0,1.9694 1.5965,3.5661 3.566,3.5661 1.9691,0 3.5658,-1.5967 3.5658,-3.5661 0,-1.9692 -1.5967,-3.5657 -3.5658,-3.5657 -1.9695,0 -3.566,1.5965 -3.566,3.5657 z"
           style="fill:#d1e5c7;fill-opacity:1;fill-rule:evenodd;stroke:none"
           id="path116"
           inkscape:connector-curvature="0" /><path
           d="m 113.9453,201.8932 c 0,1.6422 1.3316,2.9738 2.9738,2.9738 1.6426,0 2.974,-1.3316 2.974,-2.9738 0,-1.6427 -1.3314,-2.974 -2.974,-2.974 -1.6422,0 -2.9738,1.3313 -2.9738,2.974 z"
           style="fill:#d1e5c7;fill-opacity:1;fill-rule:evenodd;stroke:none"
           id="path118"
           inkscape:connector-curvature="0" /><path
           d="m 67.56054,202.2813 c 0,5.3582 4.34364,9.7015 9.70153,9.7015 5.35789,0 9.70154,-4.3433 9.70154,-9.7015 0,-5.3579 -4.34365,-9.7015 -9.70154,-9.7015 -5.35789,0 -9.70153,4.3436 -9.70153,9.7015 z"
           style="fill:#d1e5c7;fill-opacity:1;fill-rule:evenodd;stroke:none"
           id="path120"
           inkscape:connector-curvature="0" /></g></g></g></svg>